<?xml version="1.0" encoding="utf-8"?>
<svg id="master-artboard" viewBox="0 0 1400 980" version="1.1" xmlns="http://www.w3.org/2000/svg" x="0px" y="0px" style="enable-background:new 0 0 1400 980;" width="1400px" height="980px"><defs><style id="ee-google-fonts">@import url(https://fonts.googleapis.com/css?family=Acme:400);</style></defs><g transform="matrix(13.918584823608398, 0, 0, 13.918584823608398, 247.95663638687353, 337.469489883432)"><path d="M21 12C21 16.9706 16.9706 21 12 21C7.02944 21 3 16.9706 3 12C3 7.02944 7.02944 3 12 3C16.9706 3 21 7.02944 21 12Z" stroke="#323232" stroke-width="2" style="fill: rgb(123, 123, 123); fill-opacity: 0; stroke: rgb(0, 2, 11);"/><path d="M14 14L16 16" stroke="#323232" stroke-width="2" stroke-linecap="round" stroke-linejoin="round" style="fill: rgb(123, 123, 123); fill-opacity: 0; stroke: rgb(0, 2, 11);"/><path d="M15 11.5C15 13.433 13.433 15 11.5 15C9.567 15 8 13.433 8 11.5C8 9.567 9.567 8 11.5 8C13.433 8 15 9.567 15 11.5Z" stroke="#323232" stroke-width="2" style="fill: rgb(123, 123, 123); fill-opacity: 0; stroke: rgb(0, 2, 11);"/></g><path d="M 785.4873657226562 426.2099914550781 C 791.3073120117188 426.2099914550781 795.9473266601562 427.86334228515625 799.4073486328125 431.16998291015625 C 802.8673095703125 434.4766540527344 804.5973510742188 439.010009765625 804.5973510742188 444.7699890136719 C 804.5973510742188 450.53668212890625 802.4140014648438 455.4666748046875 798.04736328125 459.55999755859375 C 793.6740112304688 463.6533203125 788.333984375 465.70001220703125 782.02734375 465.70001220703125 L 776.8373413085938 465.70001220703125 L 777.9273071289062 489 L 765.7373657226562 489 L 766.8273315429688 466.8900146484375 L 765.7373657226562 426.2099914550781 L 785.4873657226562 426.2099914550781 M 782.2073364257812 435.3999938964844 L 777.747314453125 435.3999938964844 L 777.1173095703125 456.8800048828125 L 783.29736328125 456.8800048828125 C 786.3306884765625 456.8800048828125 788.6840209960938 455.8766784667969 790.3573608398438 453.8699951171875 C 792.0239868164062 451.8699951171875 792.8573608398438 449.0199890136719 792.8573608398438 445.32000732421875 C 792.8573608398438 438.7066650390625 789.3073120117188 435.3999938964844 782.2073364257812 435.3999938964844 ZM 824.9734497070312 425.760009765625 L 823.7034301757812 465.3399963378906 L 824.79345703125 489 L 812.053466796875 489 L 813.1434326171875 466.8900146484375 L 812.053466796875 428.0299987792969 L 824.9734497070312 425.760009765625 ZM 859.281494140625 426.2099914550781 C 865.1014404296875 426.2099914550781 869.741455078125 427.86334228515625 873.2014770507812 431.16998291015625 C 876.6614379882812 434.4766540527344 878.3914794921875 439.010009765625 878.3914794921875 444.7699890136719 C 878.3914794921875 450.53668212890625 876.2081298828125 455.4666748046875 871.8414916992188 459.55999755859375 C 867.4681396484375 463.6533203125 862.1281127929688 465.70001220703125 855.8214721679688 465.70001220703125 L 850.6314697265625 465.70001220703125 L 851.721435546875 489 L 839.531494140625 489 L 840.6214599609375 466.8900146484375 L 839.531494140625 426.2099914550781 L 859.281494140625 426.2099914550781 M 856.00146484375 435.3999938964844 L 851.5414428710938 435.3999938964844 L 850.9114379882812 456.8800048828125 L 857.0914916992188 456.8800048828125 C 860.1248168945312 456.8800048828125 862.4781494140625 455.8766784667969 864.1514892578125 453.8699951171875 C 865.818115234375 451.8699951171875 866.6514892578125 449.0199890136719 866.6514892578125 445.32000732421875 C 866.6514892578125 438.7066650390625 863.1014404296875 435.3999938964844 856.00146484375 435.3999938964844 ZM 885.855224609375 489 L 886.9451904296875 466.8900146484375 L 885.855224609375 426.2099914550781 L 919.9851684570312 426.2099914550781 L 918.9752197265625 435.95001220703125 L 898.5051879882812 435.95001220703125 L 897.9552001953125 452.04998779296875 L 916.1552124023438 452.04998779296875 L 915.1552124023438 461.70001220703125 L 897.59521484375 461.70001220703125 L 897.5051879882812 465.3399963378906 L 898.1351928710938 479.3500061035156 L 920.1652221679688 479.3500061035156 L 919.1652221679688 489 L 885.855224609375 489 ZM 931.6282348632812 470.8900146484375 C 936.7882080078125 476.04998779296875 941.9448852539062 478.6300048828125 947.0982055664062 478.6300048828125 C 949.764892578125 478.6300048828125 951.9048461914062 478.00665283203125 953.5181884765625 476.760009765625 C 955.1248779296875 475.5133361816406 955.92822265625 473.90667724609375 955.92822265625 471.94000244140625 C 955.92822265625 469.9666748046875 954.9581909179688 468.2966613769531 953.0181884765625 466.92999267578125 C 951.071533203125 465.57000732421875 948.7182006835938 464.3733215332031 945.9581909179688 463.3399963378906 C 943.1981811523438 462.3066711425781 940.4548950195312 461.13665771484375 937.7282104492188 459.8299865722656 C 934.994873046875 458.5299987792969 932.658203125 456.6666564941406 930.7182006835938 454.239990234375 C 928.7781982421875 451.8133239746094 927.8082275390625 448.8699951171875 927.8082275390625 445.4100036621094 C 927.8082275390625 439.95001220703125 930.08154296875 435.23333740234375 934.6282348632812 431.260009765625 C 939.1815185546875 427.28668212890625 944.58154296875 425.29998779296875 950.8281860351562 425.29998779296875 C 953.6815185546875 425.29998779296875 956.4415283203125 425.60333251953125 959.1082153320312 426.2099914550781 C 961.7815551757812 426.816650390625 964.3615112304688 427.6966552734375 966.8482055664062 428.8500061035156 L 960.658203125 442.1300048828125 C 958.9581909179688 440.7966613769531 956.63818359375 439.57000732421875 953.6981811523438 438.45001220703125 C 950.7515258789062 437.33001708984375 948.1715087890625 436.7699890136719 945.9581909179688 436.7699890136719 C 943.744873046875 436.7699890136719 941.9548950195312 437.29998779296875 940.5881958007812 438.3599853515625 C 939.2282104492188 439.41998291015625 938.5482177734375 440.83001708984375 938.5482177734375 442.5899963378906 C 938.5482177734375 444.3500061035156 939.5181884765625 445.913330078125 941.4581909179688 447.2799987792969 C 943.398193359375 448.6400146484375 945.7482299804688 449.836669921875 948.5081787109375 450.8699951171875 C 951.2681884765625 451.9033203125 954.0281982421875 453.0400085449219 956.7882080078125 454.2799987792969 C 959.5482177734375 455.52667236328125 961.898193359375 457.36334228515625 963.8381958007812 459.7900085449219 C 965.7848510742188 462.2166748046875 966.7581787109375 465.1600036621094 966.7581787109375 468.6199951171875 C 966.7581787109375 474.32000732421875 964.4815673828125 479.30999755859375 959.92822265625 483.5899963378906 C 955.3815307617188 487.86334228515625 950.0748901367188 490 944.0081787109375 490 C 939.4548950195312 490 935.418212890625 488.9100036621094 931.898193359375 486.7300109863281 C 928.8048706054688 484.84332275390625 926.6215209960938 483.17333984375 925.3482055664062 481.7200012207031 L 924.5281982421875 480.7200012207031 L 931.6282348632812 470.8900146484375 ZM 976.4019775390625 489 L 977.491943359375 466.8900146484375 L 976.4019775390625 426.2099914550781 L 1010.5319213867188 426.2099914550781 L 1009.52197265625 435.95001220703125 L 989.0519409179688 435.95001220703125 L 988.501953125 452.04998779296875 L 1006.7019653320312 452.04998779296875 L 1005.7019653320312 461.70001220703125 L 988.1419677734375 461.70001220703125 L 988.0519409179688 465.3399963378906 L 988.6819458007812 479.3500061035156 L 1010.7119750976562 479.3500061035156 L 1009.7119750976562 489 L 976.4019775390625 489 ZM 1057.9273681640625 489.45001220703125 L 1053.477294921875 471.7099914550781 L 1031.727294921875 471.7099914550781 L 1026.8973388671875 489 L 1015.247314453125 488.0899963378906 L 1023.25732421875 465.9800109863281 L 1035.457275390625 426.8500061035156 L 1051.747314453125 425.6600036621094 L 1063.477294921875 464.6099853515625 L 1071.037353515625 487.45001220703125 L 1057.9273681640625 489.45001220703125 M 1043.557373046875 437.489990234375 L 1042.3673095703125 437.489990234375 L 1034.54736328125 462.05999755859375 L 1050.7373046875 462.05999755859375 L 1043.557373046875 437.489990234375 ZM 1095.9730224609375 464.7900085449219 L 1090.7830810546875 464.7900085449219 L 1090.7830810546875 465.3399963378906 L 1091.873046875 489 L 1079.68310546875 489 L 1080.7730712890625 466.8900146484375 L 1079.68310546875 426.2099914550781 L 1099.43310546875 426.2099914550781 C 1105.2530517578125 426.2099914550781 1109.89306640625 427.78668212890625 1113.35302734375 430.94000244140625 C 1116.8131103515625 434.09332275390625 1118.5430908203125 438.2799987792969 1118.5430908203125 443.5 C 1118.5430908203125 447.44000244140625 1117.5263671875 451.0333251953125 1115.4930419921875 454.2799987792969 C 1113.459716796875 457.52667236328125 1110.713134765625 460.0899963378906 1107.2530517578125 461.9700012207031 L 1123.093017578125 484.3599853515625 L 1112.0831298828125 490 L 1097.883056640625 464.70001220703125 C 1097.4564208984375 464.760009765625 1096.8197021484375 464.7900085449219 1095.9730224609375 464.7900085449219 M 1096.153076171875 435.3999938964844 L 1091.693115234375 435.3999938964844 L 1091.0631103515625 455.9700012207031 L 1097.2430419921875 455.9700012207031 C 1100.2763671875 455.9700012207031 1102.6297607421875 454.9666748046875 1104.3031005859375 452.9599914550781 C 1105.9697265625 450.9599914550781 1106.8031005859375 448.1099853515625 1106.8031005859375 444.4100036621094 C 1106.8031005859375 438.4033203125 1103.2530517578125 435.3999938964844 1096.153076171875 435.3999938964844 ZM 1151.7503662109375 490 C 1145.0169677734375 490 1139.3470458984375 487.17999267578125 1134.7403564453125 481.5400085449219 C 1130.126953125 475.8999938964844 1127.8203125 468.98333740234375 1127.8203125 460.7900085449219 C 1127.8203125 450.77667236328125 1130.5970458984375 442.34332275390625 1136.150390625 435.489990234375 C 1141.697021484375 428.63665771484375 1148.5069580078125 425.2099914550781 1156.580322265625 425.2099914550781 C 1159.733642578125 425.2099914550781 1162.6602783203125 425.52667236328125 1165.3603515625 426.1600036621094 C 1168.060302734375 426.79998779296875 1169.987060546875 427.4533386230469 1171.140380859375 428.1199951171875 L 1172.7703857421875 429.1199951171875 L 1166.59033203125 441.7699890136719 C 1165.1903076171875 440.5566711425781 1163.217041015625 439.41998291015625 1160.6702880859375 438.3599853515625 C 1158.1236572265625 437.29998779296875 1155.8170166015625 436.7699890136719 1153.7503662109375 436.7699890136719 C 1149.5703125 436.7699890136719 1146.2203369140625 438.4966735839844 1143.7003173828125 441.95001220703125 C 1141.1802978515625 445.4100036621094 1139.9202880859375 450.3399963378906 1139.9202880859375 456.739990234375 C 1139.9202880859375 463.1400146484375 1141.22705078125 468.38665771484375 1143.84033203125 472.4800109863281 C 1146.447021484375 476.5799865722656 1149.99365234375 478.6300048828125 1154.4803466796875 478.6300048828125 C 1157.3936767578125 478.6300048828125 1160.03369140625 477.7200012207031 1162.400390625 475.8999938964844 C 1164.7669677734375 474.0799865722656 1166.4337158203125 471.6533203125 1167.400390625 468.6199951171875 L 1174.9603271484375 472.9800109863281 C 1172.9603271484375 478.32000732421875 1169.89697265625 482.49334716796875 1165.7703857421875 485.5 C 1161.6436767578125 488.5 1156.9703369140625 490 1151.7503662109375 490 ZM 1230.74365234375 425.760009765625 L 1229.4736328125 465.3399963378906 L 1230.5635986328125 489 L 1217.8236083984375 489 L 1218.9136962890625 466.8900146484375 L 1218.733642578125 462.05999755859375 L 1194.253662109375 462.05999755859375 L 1194.1636962890625 465.3399963378906 L 1195.253662109375 489 L 1182.513671875 489 L 1183.6036376953125 466.8900146484375 L 1182.513671875 428.0299987792969 L 1195.43359375 425.760009765625 L 1194.523681640625 452.41998291015625 L 1218.463623046875 452.41998291015625 L 1217.8236083984375 428.0299987792969 L 1230.74365234375 425.760009765625 Z" transform="matrix(1.4115662574768066, 0, 0, 1.4115662574768066, -508.150146484375, -147.64730834960938)" style="fill: rgb(0, 0, 0); white-space: pre; color: rgb(0, 0, 0); stroke: rgb(0, 1, 6); -webkit-text-stroke: rgb(0, 51, 255);"/><path d="M 613.7606201171875 591.4400024414062 C 615.2939453125 591.4400024414062 616.5106201171875 591.7866821289062 617.41064453125 592.47998046875 C 618.303955078125 593.1799926757812 618.7506103515625 594.1133422851562 618.7506103515625 595.280029296875 C 618.7506103515625 597.1533203125 617.9839477539062 598.4566650390625 616.4506225585938 599.1900024414062 C 618.5306396484375 599.9099731445312 619.5706176757812 601.239990234375 619.5706176757812 603.1799926757812 C 619.5706176757812 604.6333618164062 618.9439697265625 605.8433227539062 617.6906127929688 606.8099975585938 C 616.4439697265625 607.7766723632812 614.8772583007812 608.260009765625 612.9906005859375 608.260009765625 C 611.9972534179688 608.260009765625 610.5172729492188 608.17333984375 608.5505981445312 608 L 608.8406372070312 602.1699829101562 L 608.5505981445312 591.4400024414062 L 613.7606201171875 591.4400024414062 M 613.4506225585938 600.8699951171875 L 611.5006103515625 600.8699951171875 L 611.4805908203125 601.760009765625 L 611.650634765625 605.6699829101562 C 612.5772705078125 605.75 613.2872924804688 605.7899780273438 613.7806396484375 605.7899780273438 C 614.6272583007812 605.7899780273438 615.2872924804688 605.5800170898438 615.7606201171875 605.1599731445312 C 616.2339477539062 604.7333374023438 616.4706420898438 604.1133422851562 616.4706420898438 603.2999877929688 C 616.4706420898438 602.47998046875 616.2305908203125 601.8699951171875 615.7506103515625 601.469970703125 C 615.2706298828125 601.0700073242188 614.5039672851562 600.8699951171875 613.4506225585938 600.8699951171875 M 612.890625 593.8599853515625 L 611.7206420898438 593.8599853515625 L 611.5706176757812 598.5399780273438 L 613.130615234375 598.5399780273438 C 613.9506225585938 598.5399780273438 614.5772705078125 598.3200073242188 615.0106201171875 597.8800048828125 C 615.437255859375 597.4400024414062 615.650634765625 596.8133544921875 615.650634765625 596 C 615.650634765625 594.5733642578125 614.7305908203125 593.8599853515625 612.890625 593.8599853515625 ZM 622.4668579101562 608 L 622.7568969726562 602.1699829101562 L 622.4668579101562 591.4400024414062 L 631.4668579101562 591.4400024414062 L 631.2068481445312 594.010009765625 L 625.806884765625 594.010009765625 L 625.6568603515625 598.260009765625 L 630.4568481445312 598.260009765625 L 630.1968994140625 600.7999877929688 L 625.56689453125 600.7999877929688 L 625.536865234375 601.760009765625 L 625.7068481445312 605.4600219726562 L 631.516845703125 605.4600219726562 L 631.2468872070312 608 L 622.4668579101562 608 ZM 634.533935546875 603.219970703125 C 635.8939208984375 604.5800170898438 637.2539672851562 605.260009765625 638.6139526367188 605.260009765625 C 639.3206176757812 605.260009765625 639.8872680664062 605.0966796875 640.31396484375 604.77001953125 C 640.7339477539062 604.443359375 640.9439697265625 604.02001953125 640.9439697265625 603.5 C 640.9439697265625 602.97998046875 640.687255859375 602.5399780273438 640.1739501953125 602.1799926757812 C 639.6672973632812 601.8200073242188 639.0473022460938 601.5033569335938 638.31396484375 601.22998046875 C 637.5872802734375 600.9566650390625 636.8639526367188 600.6500244140625 636.1439208984375 600.3099975585938 C 635.4239501953125 599.9633178710938 634.8072509765625 599.469970703125 634.2939453125 598.8300170898438 C 633.7872924804688 598.1900024414062 633.533935546875 597.413330078125 633.533935546875 596.5 C 633.533935546875 595.0599975585938 634.1339721679688 593.816650390625 635.3339233398438 592.77001953125 C 636.533935546875 591.7233276367188 637.957275390625 591.2000122070312 639.6039428710938 591.2000122070312 C 640.3572998046875 591.2000122070312 641.0839233398438 591.280029296875 641.783935546875 591.4400024414062 C 642.4906005859375 591.5999755859375 643.1705932617188 591.8333129882812 643.8239135742188 592.1400146484375 L 642.1939697265625 595.6400146484375 C 641.7472534179688 595.2866821289062 641.1339721679688 594.9633178710938 640.3539428710938 594.6699829101562 C 639.5806274414062 594.3699951171875 638.900634765625 594.219970703125 638.31396484375 594.219970703125 C 637.7339477539062 594.219970703125 637.263916015625 594.3599853515625 636.9039306640625 594.6400146484375 C 636.5439453125 594.9199829101562 636.3639526367188 595.2933349609375 636.3639526367188 595.760009765625 C 636.3639526367188 596.2266845703125 636.62060546875 596.6400146484375 637.1339721679688 597 C 637.640625 597.3599853515625 638.2606201171875 597.67333984375 638.9939575195312 597.9400024414062 C 639.7205810546875 598.2133178710938 640.447265625 598.5133056640625 641.1739501953125 598.8400268554688 C 641.900634765625 599.17333984375 642.5206298828125 599.6599731445312 643.033935546875 600.2999877929688 C 643.5473022460938 600.9400024414062 643.803955078125 601.7133178710938 643.803955078125 602.6199951171875 C 643.803955078125 604.1266479492188 643.2039184570312 605.443359375 642.0039672851562 606.5700073242188 C 640.803955078125 607.6966552734375 639.4039306640625 608.260009765625 637.803955078125 608.260009765625 C 636.6039428710938 608.260009765625 635.5405883789062 607.9733276367188 634.6139526367188 607.4000244140625 C 633.7939453125 606.9066772460938 633.21728515625 606.4666748046875 632.8839721679688 606.0800170898438 L 632.6639404296875 605.8200073242188 L 634.533935546875 603.219970703125 ZM 644.4274291992188 594.2000122070312 L 644.6874389648438 591.4400024414062 L 656.08740234375 591.4400024414062 L 655.8274536132812 594.2000122070312 L 651.6473999023438 593.8400268554688 L 651.5574340820312 601.760009765625 L 651.847412109375 608 L 648.4874267578125 608 L 648.7674560546875 602.1699829101562 L 648.6774291992188 593.8599853515625 L 644.4274291992188 594.2000122070312 ZM 671.4067993164062 608.1199951171875 L 670.226806640625 603.4400024414062 L 664.48681640625 603.4400024414062 L 663.216796875 608 L 660.1467895507812 607.760009765625 L 662.2567749023438 601.9299926757812 L 665.476806640625 591.6099853515625 L 669.7667846679688 591.2999877929688 L 672.8668212890625 601.5700073242188 L 674.8568115234375 607.5900268554688 L 671.4067993164062 608.1199951171875 M 667.6068115234375 594.4199829101562 L 667.2968139648438 594.4199829101562 L 665.23681640625 600.9000244140625 L 669.5067749023438 600.9000244140625 L 667.6068115234375 594.4199829101562 ZM 680.5472412109375 591.3200073242188 L 680.2072143554688 601.760009765625 L 680.4972534179688 608 L 677.13720703125 608 L 677.42724609375 602.1699829101562 L 677.13720703125 591.9199829101562 L 680.5472412109375 591.3200073242188 ZM 696.5028686523438 594.010009765625 L 691.392822265625 594.010009765625 L 691.2528686523438 598.4199829101562 L 695.8328247070312 598.4199829101562 L 695.5728149414062 600.969970703125 L 691.182861328125 600.969970703125 L 691.15283203125 601.760009765625 L 691.44287109375 608 L 688.0828247070312 608 L 688.3728637695312 602.1699829101562 L 688.0828247070312 591.4400024414062 L 696.7728271484375 591.4400024414062 L 696.5028686523438 594.010009765625 ZM 703.7509765625 608.260009765625 C 702.3109741210938 608.260009765625 701.1010131835938 607.8200073242188 700.1209716796875 606.9400024414062 C 699.1343383789062 606.0599975585938 698.6409912109375 604.9733276367188 698.6409912109375 603.6799926757812 L 698.4010009765625 591.9199829101562 L 701.8610229492188 591.3200073242188 L 701.4710083007812 601.8300170898438 C 701.4710083007812 602.9500122070312 701.7310180664062 603.8233032226562 702.2509765625 604.4500122070312 C 702.77099609375 605.0700073242188 703.57763671875 605.3800048828125 704.6710205078125 605.3800048828125 C 705.7576904296875 605.3800048828125 706.541015625 605.07666015625 707.02099609375 604.469970703125 C 707.5009765625 603.8633422851562 707.740966796875 602.816650390625 707.740966796875 601.3300170898438 L 707.4509887695312 591.9199829101562 L 710.8109741210938 591.3200073242188 L 710.551025390625 601.8800048828125 C 710.551025390625 603.7666625976562 709.9176635742188 605.3033447265625 708.6510009765625 606.489990234375 C 707.3843383789062 607.6699829101562 705.7509765625 608.260009765625 703.7509765625 608.260009765625 ZM 727.0123291015625 591.3900146484375 L 726.6923217773438 601.760009765625 L 726.9623413085938 607.469970703125 L 724.13232421875 608.0700073242188 L 716.9723510742188 596.5 L 716.9723510742188 601.760009765625 L 717.3123168945312 608 L 714.3123168945312 608 L 714.6023559570312 602.1699829101562 L 714.3123168945312 591.510009765625 L 717.1923217773438 591.3699951171875 L 724.3223266601562 603.0999755859375 L 724.0823364257812 591.75 L 727.0123291015625 591.3900146484375 ZM 735.95849609375 608.260009765625 C 734.1851196289062 608.260009765625 732.6884765625 607.5166625976562 731.4684448242188 606.030029296875 C 730.255126953125 604.5433349609375 729.6484375 602.719970703125 729.6484375 600.5599975585938 C 729.6484375 597.9199829101562 730.3817749023438 595.6966552734375 731.8484497070312 593.8900146484375 C 733.3084716796875 592.0833129882812 735.101806640625 591.1799926757812 737.2284545898438 591.1799926757812 C 738.0618286132812 591.1799926757812 738.8351440429688 591.2633056640625 739.5484619140625 591.4299926757812 C 740.2617797851562 591.5966796875 740.7684936523438 591.7666625976562 741.0684814453125 591.9400024414062 L 741.5084838867188 592.2100219726562 L 739.8684692382812 595.5399780273438 C 739.5018310546875 595.219970703125 738.9818115234375 594.9199829101562 738.3084716796875 594.6400146484375 C 737.6417846679688 594.3599853515625 737.03515625 594.219970703125 736.4884643554688 594.219970703125 C 735.3817749023438 594.219970703125 734.4984741210938 594.6766357421875 733.8384399414062 595.5900268554688 C 733.1718139648438 596.5033569335938 732.8384399414062 597.8033447265625 732.8384399414062 599.489990234375 C 732.8384399414062 601.1766967773438 733.1818237304688 602.5599975585938 733.8684692382812 603.6400146484375 C 734.5618286132812 604.719970703125 735.4984741210938 605.260009765625 736.678466796875 605.260009765625 C 737.4451293945312 605.260009765625 738.1417846679688 605.02001953125 738.7684936523438 604.5399780273438 C 739.3951416015625 604.0599975585938 739.8351440429688 603.4199829101562 740.0884399414062 602.6199951171875 L 742.0784912109375 603.780029296875 C 741.5518188476562 605.1866455078125 740.7451171875 606.2866821289062 739.658447265625 607.0800170898438 C 738.57177734375 607.8666381835938 737.3384399414062 608.260009765625 735.95849609375 608.260009765625 ZM 742.1519775390625 594.2000122070312 L 742.4119873046875 591.4400024414062 L 753.8119506835938 591.4400024414062 L 753.552001953125 594.2000122070312 L 749.3719482421875 593.8400268554688 L 749.281982421875 601.760009765625 L 749.5719604492188 608 L 746.2119750976562 608 L 746.4920043945312 602.1699829101562 L 746.4019775390625 593.8599853515625 L 742.1519775390625 594.2000122070312 ZM 759.14697265625 591.3200073242188 L 758.8069458007812 601.760009765625 L 759.0969848632812 608 L 755.7369384765625 608 L 756.0269775390625 602.1699829101562 L 755.7369384765625 591.9199829101562 L 759.14697265625 591.3200073242188 ZM 769.7037353515625 591.2000122070312 C 771.5903930664062 591.2000122070312 773.1470336914062 591.9199829101562 774.3737182617188 593.3599853515625 C 775.59375 594.7999877929688 776.2037353515625 596.6333618164062 776.2037353515625 598.8599853515625 C 776.2037353515625 601.67333984375 775.47705078125 603.943359375 774.0237426757812 605.6699829101562 C 772.5703735351562 607.3966674804688 770.6570434570312 608.260009765625 768.28369140625 608.260009765625 C 766.4437255859375 608.260009765625 764.900390625 607.52001953125 763.6537475585938 606.0399780273438 C 762.4070434570312 604.5599975585938 761.78369140625 602.7333374023438 761.78369140625 600.5599975585938 C 761.78369140625 597.8400268554688 762.5270385742188 595.5999755859375 764.0137329101562 593.8400268554688 C 765.5003662109375 592.0800170898438 767.3970336914062 591.2000122070312 769.7037353515625 591.2000122070312 M 772.9437255859375 600.2000122070312 C 772.9437255859375 596.1533203125 771.6170654296875 594.1300048828125 768.9637451171875 594.1300048828125 C 767.7437133789062 594.1300048828125 766.7870483398438 594.5800170898438 766.09375 595.47998046875 C 765.3937377929688 596.3866577148438 765.043701171875 597.739990234375 765.043701171875 599.5399780273438 C 765.043701171875 601.3400268554688 765.4170532226562 602.8200073242188 766.1636962890625 603.97998046875 C 766.910400390625 605.1400146484375 767.8937377929688 605.719970703125 769.1137084960938 605.719970703125 C 770.3403930664062 605.719970703125 771.28369140625 605.2266845703125 771.9437255859375 604.239990234375 C 772.6104125976562 603.260009765625 772.9437255859375 601.913330078125 772.9437255859375 600.2000122070312 ZM 791.54931640625 591.3900146484375 L 791.2293090820312 601.760009765625 L 791.4993286132812 607.469970703125 L 788.6693115234375 608.0700073242188 L 781.5093383789062 596.5 L 781.5093383789062 601.760009765625 L 781.8493041992188 608 L 778.8493041992188 608 L 779.1393432617188 602.1699829101562 L 778.8493041992188 591.510009765625 L 781.7293090820312 591.3699951171875 L 788.8593139648438 603.0999755859375 L 788.6193237304688 591.75 L 791.54931640625 591.3900146484375 ZM 795.6453857421875 603.219970703125 C 797.00537109375 604.5800170898438 798.3654174804688 605.260009765625 799.7254028320312 605.260009765625 C 800.4320678710938 605.260009765625 800.9987182617188 605.0966796875 801.4254150390625 604.77001953125 C 801.8453979492188 604.443359375 802.055419921875 604.02001953125 802.055419921875 603.5 C 802.055419921875 602.97998046875 801.7987060546875 602.5399780273438 801.285400390625 602.1799926757812 C 800.7787475585938 601.8200073242188 800.1587524414062 601.5033569335938 799.4254150390625 601.22998046875 C 798.69873046875 600.9566650390625 797.9754028320312 600.6500244140625 797.25537109375 600.3099975585938 C 796.535400390625 599.9633178710938 795.918701171875 599.469970703125 795.4053955078125 598.8300170898438 C 794.8987426757812 598.1900024414062 794.6453857421875 597.413330078125 794.6453857421875 596.5 C 794.6453857421875 595.0599975585938 795.2454223632812 593.816650390625 796.4453735351562 592.77001953125 C 797.6453857421875 591.7233276367188 799.0687255859375 591.2000122070312 800.7153930664062 591.2000122070312 C 801.46875 591.2000122070312 802.1953735351562 591.280029296875 802.8953857421875 591.4400024414062 C 803.60205078125 591.5999755859375 804.2820434570312 591.8333129882812 804.9353637695312 592.1400146484375 L 803.305419921875 595.6400146484375 C 802.8587036132812 595.2866821289062 802.2454223632812 594.9633178710938 801.4653930664062 594.6699829101562 C 800.6920776367188 594.3699951171875 800.0120849609375 594.219970703125 799.4254150390625 594.219970703125 C 798.8453979492188 594.219970703125 798.3753662109375 594.3599853515625 798.015380859375 594.6400146484375 C 797.6553955078125 594.9199829101562 797.4754028320312 595.2933349609375 797.4754028320312 595.760009765625 C 797.4754028320312 596.2266845703125 797.7320556640625 596.6400146484375 798.2454223632812 597 C 798.7520751953125 597.3599853515625 799.3720703125 597.67333984375 800.1054077148438 597.9400024414062 C 800.83203125 598.2133178710938 801.5587158203125 598.5133056640625 802.285400390625 598.8400268554688 C 803.0120849609375 599.17333984375 803.632080078125 599.6599731445312 804.1453857421875 600.2999877929688 C 804.6587524414062 600.9400024414062 804.9154052734375 601.7133178710938 804.9154052734375 602.6199951171875 C 804.9154052734375 604.1266479492188 804.3153686523438 605.443359375 803.1154174804688 606.5700073242188 C 801.9154052734375 607.6966552734375 800.515380859375 608.260009765625 798.9154052734375 608.260009765625 C 797.7153930664062 608.260009765625 796.6520385742188 607.9733276367188 795.7254028320312 607.4000244140625 C 794.9053955078125 606.9066772460938 794.3287353515625 606.4666748046875 793.9954223632812 606.0800170898438 L 793.775390625 605.8200073242188 L 795.6453857421875 603.219970703125 ZM 811.1533203125 608 L 811.443359375 602.1699829101562 L 811.1533203125 591.9199829101562 L 814.5633544921875 591.3200073242188 L 814.2233276367188 601.760009765625 L 814.393310546875 605.6500244140625 L 819.3133544921875 605.260009765625 L 819.0533447265625 608 L 811.1533203125 608 ZM 824.78515625 591.3200073242188 L 824.4451293945312 601.760009765625 L 824.7351684570312 608 L 821.3751220703125 608 L 821.6651611328125 602.1699829101562 L 821.3751220703125 591.9199829101562 L 824.78515625 591.3200073242188 ZM 833.8363647460938 591.4400024414062 C 835.3696899414062 591.4400024414062 836.5863647460938 591.7866821289062 837.4863891601562 592.47998046875 C 838.3796997070312 593.1799926757812 838.8263549804688 594.1133422851562 838.8263549804688 595.280029296875 C 838.8263549804688 597.1533203125 838.0596923828125 598.4566650390625 836.5263671875 599.1900024414062 C 838.6063842773438 599.9099731445312 839.6463623046875 601.239990234375 839.6463623046875 603.1799926757812 C 839.6463623046875 604.6333618164062 839.0197143554688 605.8433227539062 837.766357421875 606.8099975585938 C 836.5197143554688 607.7766723632812 834.9530029296875 608.260009765625 833.0663452148438 608.260009765625 C 832.072998046875 608.260009765625 830.593017578125 608.17333984375 828.6263427734375 608 L 828.9163818359375 602.1699829101562 L 828.6263427734375 591.4400024414062 L 833.8363647460938 591.4400024414062 M 833.5263671875 600.8699951171875 L 831.5763549804688 600.8699951171875 L 831.5563354492188 601.760009765625 L 831.7263793945312 605.6699829101562 C 832.6530151367188 605.75 833.363037109375 605.7899780273438 833.8563842773438 605.7899780273438 C 834.7030029296875 605.7899780273438 835.363037109375 605.5800170898438 835.8363647460938 605.1599731445312 C 836.3096923828125 604.7333374023438 836.54638671875 604.1133422851562 836.54638671875 603.2999877929688 C 836.54638671875 602.47998046875 836.3063354492188 601.8699951171875 835.8263549804688 601.469970703125 C 835.3463745117188 601.0700073242188 834.5797119140625 600.8699951171875 833.5263671875 600.8699951171875 M 832.9663696289062 593.8599853515625 L 831.79638671875 593.8599853515625 L 831.6463623046875 598.5399780273438 L 833.2063598632812 598.5399780273438 C 834.0263671875 598.5399780273438 834.6530151367188 598.3200073242188 835.0863647460938 597.8800048828125 C 835.5130004882812 597.4400024414062 835.7263793945312 596.8133544921875 835.7263793945312 596 C 835.7263793945312 594.5733642578125 834.8063354492188 593.8599853515625 832.9663696289062 593.8599853515625 ZM 846.842529296875 601.6199951171875 L 845.4725341796875 601.6199951171875 L 845.4725341796875 601.760009765625 L 845.7625732421875 608 L 842.5425415039062 608 L 842.8325805664062 602.1699829101562 L 842.5425415039062 591.4400024414062 L 847.7525634765625 591.4400024414062 C 849.285888671875 591.4400024414062 850.5092163085938 591.856689453125 851.4225463867188 592.6900024414062 C 852.3358764648438 593.5233154296875 852.7925415039062 594.6266479492188 852.7925415039062 596 C 852.7925415039062 597.0399780273438 852.5225830078125 597.9866943359375 851.9825439453125 598.8400268554688 C 851.44921875 599.7000122070312 850.7258911132812 600.3766479492188 849.8125610351562 600.8699951171875 L 853.9925537109375 606.780029296875 L 851.0825805664062 608.260009765625 L 847.342529296875 601.5900268554688 C 847.229248046875 601.6099853515625 847.0625610351562 601.6199951171875 846.842529296875 601.6199951171875 M 846.882568359375 593.8599853515625 L 845.7125854492188 593.8599853515625 L 845.5425415039062 599.2899780273438 L 847.1725463867188 599.2899780273438 C 847.9725341796875 599.2899780273438 848.592529296875 599.0266723632812 849.0325317382812 598.5 C 849.4725341796875 597.9666748046875 849.6925659179688 597.2133178710938 849.6925659179688 596.239990234375 C 849.6925659179688 594.6533203125 848.7559204101562 593.8599853515625 846.882568359375 593.8599853515625 ZM 866.1410522460938 608.1199951171875 L 864.9610595703125 603.4400024414062 L 859.2210693359375 603.4400024414062 L 857.9510498046875 608 L 854.8810424804688 607.760009765625 L 856.9910278320312 601.9299926757812 L 860.2110595703125 591.6099853515625 L 864.5010375976562 591.2999877929688 L 867.60107421875 601.5700073242188 L 869.591064453125 607.5900268554688 L 866.1410522460938 608.1199951171875 M 862.341064453125 594.4199829101562 L 862.0310668945312 594.4199829101562 L 859.9710693359375 600.9000244140625 L 864.2410278320312 600.9000244140625 L 862.341064453125 594.4199829101562 ZM 876.1715087890625 601.6199951171875 L 874.801513671875 601.6199951171875 L 874.801513671875 601.760009765625 L 875.091552734375 608 L 871.8715209960938 608 L 872.1615600585938 602.1699829101562 L 871.8715209960938 591.4400024414062 L 877.08154296875 591.4400024414062 C 878.6148681640625 591.4400024414062 879.8381958007812 591.856689453125 880.7515258789062 592.6900024414062 C 881.6648559570312 593.5233154296875 882.1215209960938 594.6266479492188 882.1215209960938 596 C 882.1215209960938 597.0399780273438 881.8515625 597.9866943359375 881.3115234375 598.8400268554688 C 880.7781982421875 599.7000122070312 880.0548706054688 600.3766479492188 879.1415405273438 600.8699951171875 L 883.321533203125 606.780029296875 L 880.4115600585938 608.260009765625 L 876.6715087890625 601.5900268554688 C 876.5582275390625 601.6099853515625 876.3915405273438 601.6199951171875 876.1715087890625 601.6199951171875 M 876.2115478515625 593.8599853515625 L 875.0415649414062 593.8599853515625 L 874.8715209960938 599.2899780273438 L 876.5015258789062 599.2899780273438 C 877.301513671875 599.2899780273438 877.9215087890625 599.0266723632812 878.3615112304688 598.5 C 878.801513671875 597.9666748046875 879.0215454101562 597.2133178710938 879.0215454101562 596.239990234375 C 879.0215454101562 594.6533203125 878.0848999023438 593.8599853515625 876.2115478515625 593.8599853515625 ZM 890.6355590820312 598.52001953125 L 890.9255981445312 598.52001953125 L 892.70556640625 595.260009765625 L 894.5055541992188 591.2999877929688 L 897.4255981445312 591.72998046875 L 895.2255859375 595.739990234375 L 892.1055908203125 601.8300170898438 L 892.3656005859375 608 L 889.0055541992188 608 L 889.24560546875 602.239990234375 L 886.2255859375 596.0999755859375 L 883.9155883789062 591.9000244140625 L 887.3056030273438 591.2999877929688 L 888.8656005859375 594.9400024414062 L 890.6355590820312 598.52001953125 Z" transform="matrix(2.428412675857544, 0, 0, 2.428412675857544, -914.8274536132812, -871.5062866210938)" style="fill: rgb(0, 2, 11); white-space: pre; color: rgb(51, 51, 51); stroke: rgb(0, 0, 1);"/></svg>